<svg width="42" height="42" viewBox="0 0 42 42" fill="none" xmlns="http://www.w3.org/2000/svg">
<path d="M30.375 2.25H11.625C6.44733 2.25 2.25 6.44733 2.25 11.625V30.375C2.25 35.5527 6.44733 39.75 11.625 39.75H30.375C35.5527 39.75 39.75 35.5527 39.75 30.375V11.625C39.75 6.44733 35.5527 2.25 30.375 2.25Z" stroke="#2C9EDE" stroke-width="3.75" stroke-linecap="round" stroke-linejoin="round"/>
<path d="M28.5 19.8187C28.7314 21.3792 28.4649 22.9729 27.7383 24.3731C27.0117 25.7734 25.8621 26.9089 24.453 27.6181C23.0439 28.3274 21.4471 28.5742 19.8896 28.3236C18.3321 28.073 16.8933 27.3376 15.7778 26.2222C14.6623 25.1067 13.927 23.6679 13.6764 22.1104C13.4258 20.5529 13.6726 18.956 14.3819 17.5469C15.0911 16.1378 16.2266 14.9882 17.6268 14.2617C19.0271 13.5351 20.6208 13.2686 22.1813 13.5C23.773 13.736 25.2466 14.4777 26.3844 15.6156C27.5223 16.7534 28.264 18.227 28.5 19.8187Z" stroke="#2C9EDE" stroke-width="3.75" stroke-linecap="round" stroke-linejoin="round"/>
</svg>
