<svg width="290" height="82" viewBox="0 0 290 82" fill="none" xmlns="http://www.w3.org/2000/svg">
<path d="M121.929 56L132.057 29.6L128.313 24.992H173.769L161.865 56H157.833L159.657 62.432H146.601L144.681 56H121.929ZM157.785 32.72H143.865L137.865 48.32L153.945 42.752L157.785 32.72ZM179.635 29.6L175.891 24.992H194.42L185.443 48.32H199.363L208.339 24.992H221.347L209.443 56H169.507L179.635 29.6ZM227.214 29.6L223.47 24.992H241.998L230.094 56H217.086L227.214 29.6ZM277.599 56H264.591L266.895 49.952L262.191 44.288L252.975 50.048L250.671 56H237.663L241.455 46.064L250.623 40.496L245.823 34.928L247.839 29.6L244.095 24.992H262.623L260.319 30.944L265.023 36.704L274.239 31.04L276.543 24.992H289.551L285.711 35.024L276.591 40.544L281.439 45.968L277.599 56Z" fill="#F1EEEE"/>
<ellipse cx="40.6694" cy="41" rx="40.6694" ry="41" fill="#67BDEE"/>
<rect x="55.0139" y="4.79816" width="54.7768" height="54.7768" transform="rotate(66.9263 55.0139 4.79816)" fill="#2C9EDE"/>
<rect x="70.0883" y="15.6743" width="54.7768" height="54.7768" transform="rotate(94.6942 70.0883 15.6743)" fill="#1D5F84"/>
<rect x="79.1319" y="37.3069" width="54.7768" height="54.7768" transform="rotate(129.931 79.1319 37.3069)" fill="#2C9EDE"/>
</svg>
