<svg width="42" height="40" viewBox="0 0 42 40" fill="none" xmlns="http://www.w3.org/2000/svg">
<path d="M28.5 13.4375C31.4837 13.4375 34.3452 14.6228 36.455 16.7325C38.5647 18.8423 39.75 21.7038 39.75 24.6875V37.8125H32.25V24.6875C32.25 23.6929 31.8549 22.7391 31.1516 22.0359C30.4484 21.3326 29.4946 20.9375 28.5 20.9375C27.5054 20.9375 26.5516 21.3326 25.8484 22.0359C25.1451 22.7391 24.75 23.6929 24.75 24.6875V37.8125H17.25V24.6875C17.25 21.7038 18.4353 18.8423 20.545 16.7325C22.6548 14.6228 25.5163 13.4375 28.5 13.4375Z" stroke="#2C9EDE" stroke-width="3.75" stroke-linecap="round" stroke-linejoin="round"/>
<path d="M9.75 15.3125H2.25V37.8125H9.75V15.3125Z" stroke="#2C9EDE" stroke-width="3.75" stroke-linecap="round" stroke-linejoin="round"/>
<path d="M6 9.6875C8.07107 9.6875 9.75 8.00857 9.75 5.9375C9.75 3.86643 8.07107 2.1875 6 2.1875C3.92893 2.1875 2.25 3.86643 2.25 5.9375C2.25 8.00857 3.92893 9.6875 6 9.6875Z" stroke="#2C9EDE" stroke-width="3.75" stroke-linecap="round" stroke-linejoin="round"/>
</svg>
