<svg width="28" height="28" viewBox="0 0 28 28" fill="none" xmlns="http://www.w3.org/2000/svg">
<path d="M26.5733 15.1328C26.353 17.5158 25.4587 19.7869 23.9948 21.6803C22.5309 23.5736 20.5581 25.0109 18.3072 25.8239C16.0563 26.637 13.6204 26.7921 11.2846 26.2713C8.94868 25.7504 6.80945 24.5751 5.11717 22.8828C3.42489 21.1906 2.24957 19.0513 1.72872 16.7155C1.20788 14.3796 1.36306 11.9437 2.1761 9.69277C2.98914 7.44187 4.42642 5.46907 6.31975 4.00521C8.21309 2.54135 10.4842 1.64699 12.8673 1.42676C11.472 3.31433 10.8006 5.63999 10.9752 7.98074C11.1498 10.3215 12.1587 12.5218 13.8184 14.1816C15.4782 15.8414 17.6785 16.8503 20.0193 17.0248C22.36 17.1994 24.6857 16.528 26.5733 15.1328Z" stroke="#2C9EDE" stroke-width="2.8" stroke-linecap="round" stroke-linejoin="round"/>
</svg>
